name C:\Users\Nicos\Documents\OpenSimProjects\SprintingProject\Study1\PredictiveResults\IC_pred_Sprinting_optimum_28-October-2023__16-43-06___IKTD_Plus_4_p02_maxVel_01.mot
datacolumns 38
datarows 10
range 0.21304906 0.22287398
endheader
                time	/jointset/ground_pelvis/pelvis_tilt/value	/jointset/ground_pelvis/pelvis_list/value	/jointset/ground_pelvis/pelvis_rotation/value	/jointset/ground_pelvis/pelvis_tx/value	/jointset/ground_pelvis/pelvis_ty/value	/jointset/ground_pelvis/pelvis_tz/value	/jointset/hip_r/hip_flexion_r/value	/jointset/hip_r/hip_adduction_r/value	/jointset/hip_r/hip_rotation_r/value	/jointset/knee_r/knee_angle_r/value	/jointset/ankle_r/ankle_angle_r/value	/jointset/subtalar_r/subtalar_angle_r/value	/jointset/mtp_r/mtp_angle_r/value	/jointset/hip_l/hip_flexion_l/value	/jointset/hip_l/hip_adduction_l/value	/jointset/hip_l/hip_rotation_l/value	/jointset/knee_l/knee_angle_l/value	/jointset/ankle_l/ankle_angle_l/value	/jointset/subtalar_l/subtalar_angle_l/value	/jointset/mtp_l/mtp_angle_l/value	/jointset/back/lumbar_extension/value	/jointset/back/lumbar_bending/value	/jointset/back/lumbar_rotation/value	/jointset/acromial_r/arm_flex_r/value	/jointset/acromial_r/arm_add_r/value	/jointset/acromial_r/arm_rot_r/value	/jointset/elbow_r/elbow_flex_r/value	/jointset/radioulnar_r/pro_sup_r/value	/jointset/radius_hand_r/wrist_flex_r/value	/jointset/radius_hand_r/wrist_dev_r/value	/jointset/acromial_l/arm_flex_l/value	/jointset/acromial_l/arm_add_l/value	/jointset/acromial_l/arm_rot_l/value	/jointset/elbow_l/elbow_flex_l/value	/jointset/radioulnar_l/pro_sup_l/value	/jointset/radius_hand_l/wrist_flex_l/value	/jointset/radius_hand_l/wrist_dev_l/value	
          0.21304906	         -3.36503325	          5.27723511	        -13.33850472	          1.85431235	          0.99904497	          0.31673719	         -3.08008460	        -13.55665794	          8.42741018	        -86.23712655	        -24.26345536	        -14.07241382	        -10.47388231	         58.38259167	         -8.03965468	         -3.67550047	        -42.90212746	        -21.60060376	        -26.62632137	          9.01090606	        -21.96876867	        -10.08617304	         10.80905093	         62.68473625	        -14.41671638	         -2.86952708	        104.95832856	         64.48182322	          0.44590410	          6.30627458	        -55.53101222	        -11.22610965	         -7.46189258	         60.43711510	         57.19547217	        -21.53497035	          6.08659760	
          0.21453028	         -3.35154630	          5.24745108	        -12.99887020	          1.87179618	          0.99975631	          0.31668642	         -2.73219471	        -13.45501475	          8.15535009	        -87.19080051	        -23.89813091	        -14.16151184	        -10.47175461	         57.64056932	         -7.61931879	         -3.35096724	        -41.74608705	        -21.94730618	        -27.09106743	          8.62815790	        -22.05913962	        -10.11988989	         10.75631134	         60.99727214	        -15.07665561	         -3.54404674	        104.35879221	         63.85151795	          0.58115271	          6.26060406	        -54.82576590	        -11.88628807	         -8.08344146	         61.02727629	         57.55463556	        -21.78847202	          6.04092818	
          0.21453028	         -3.35154630	          5.24745108	        -12.99887020	          1.87179618	          0.99975631	          0.31668642	         -2.73219471	        -13.45501475	          8.15535009	        -87.19080051	        -23.89813091	        -14.16151184	        -10.47175461	         57.64056932	         -7.61931879	         -3.35096724	        -41.74608705	        -21.94730618	        -27.09106743	          8.62815790	        -22.05913962	        -10.11988989	         10.75631134	         60.99727214	        -15.07665561	         -3.54404674	        104.35879221	         63.85151795	          0.58115271	          6.26060406	        -54.82576590	        -11.88628807	         -8.08344146	         61.02727629	         57.55463556	        -21.78847202	          6.04092818	
          0.21517713	         -3.34862444	          5.23391620	        -12.84570776	          1.87944268	          1.00005720	          0.31665669	         -2.57517420	        -13.41010628	          8.03197850	        -87.60613824	        -23.73663689	        -14.20370388	        -10.47074255	         57.31870345	         -7.43356382	         -3.20154281	        -41.25329632	        -22.09346698	        -27.29652876	          8.47412352	        -22.09388917	        -10.13183515	         10.73290899	         60.24327081	        -15.36498765	         -3.85376784	        104.08412254	         63.57660890	          0.63771700	          6.24067668	        -54.51340301	        -12.17458865	         -8.36414963	         61.30347053	         57.71494905	        -21.89797222	          6.02098404	
          0.21722091	         -3.35074755	          5.18869720	        -12.34330107	          1.90364683	          1.00096832	          0.31653261	         -2.05890803	        -13.26658828	          7.62532672	        -88.91394457	        -23.21787270	        -14.34471803	        -10.46972360	         56.30963974	         -6.84023799	         -2.70200030	        -39.74387268	        -22.53684099	        -27.95334642	          8.04793052	        -22.18555908	        -10.15830455	         10.65812011	         57.79409047	        -16.27568424	         -4.87988860	        103.16818480	         62.70595146	          0.80588173	          6.17761165	        -53.50529842	        -13.08550199	         -9.27633320	         62.24682793	         58.23569465	        -22.23798061	          5.95796608	
          0.21870213	         -3.36201550	          5.15294791	        -11.96286148	          1.92122792	          1.00159111	          0.31641365	         -1.66599552	        -13.16126375	          7.31628455	        -89.85781609	        -22.83401066	        -14.45025786	        -10.47094448	         55.58445173	         -6.40661074	         -2.31761794	        -38.69412285	        -22.84322844	        -28.43409896	          7.80001814	        -22.23639723	        -10.16618878	         10.60354729	         55.96192815	        -16.93559181	         -5.65285670	        102.45876845	         62.07787832	          0.91789257	          6.13205096	        -52.74959126	        -13.74568026	         -9.94836507	         62.99044842	         58.62613414	        -22.47768771	          5.91229732	
          0.21870213	         -3.36201550	          5.15294791	        -11.96286148	          1.92122792	          1.00159111	          0.31641365	         -1.66599552	        -13.16126375	          7.31628455	        -89.85781609	        -22.83401066	        -14.45025786	        -10.47094448	         55.58445173	         -6.40661074	         -2.31761794	        -38.69412285	        -22.84322844	        -28.43409896	          7.80001814	        -22.23639723	        -10.16618878	         10.60354729	         55.96192815	        -16.93559181	         -5.65285670	        102.45876845	         62.07787832	          0.91789257	          6.13205096	        -52.74959126	        -13.74568026	         -9.94836507	         62.99044842	         58.62613414	        -22.47768771	          5.91229732	
          0.21934898	         -3.36925965	          5.13638145	        -11.79275275	          1.92891517	          1.00185316	          0.31635394	         -1.48951468	        -13.11497581	          7.17800196	        -90.26905387	        -22.66434251	        -14.49630047	        -10.47199770	         55.26904969	         -6.21694897	         -2.14487218	        -38.24706607	        -22.97372652	        -28.64455296	          7.70839122	        -22.25486848	        -10.16649030	         10.57973335	         55.14849525	        -17.22383336	         -5.99394572	        102.13700440	         61.80655513	          0.96417682	          6.11251938	        -52.41154753	        -14.03388376	        -10.24152625	         63.32871543	         58.79994478	        -22.58032160	          5.89235309	
          0.22139276	         -3.40014505	          5.08002548	        -11.24088463	          1.95323787	          1.00264109	          0.31613448	         -0.91257182	        -12.96827314	          6.72972629	        -91.56525570	        -22.12066681	        -14.63818187	        -10.47371569	         54.27601082	         -5.61897701	         -1.58434535	        -36.87853384	        -23.37566477	        -29.30811720	          7.48571322	        -22.30011510	        -10.15488390	         10.50467780	         52.53312190	        -18.13391196	         -7.06840823	        101.07081364	         60.94080465	          1.09846295	          6.04991617	        -51.30879468	        -14.94469908	        -11.15212699	         64.45247654	         59.36369814	        -22.89539118	          5.82933497	
          0.22287398	         -3.43011179	          5.03560965	        -10.82872706	          1.97089426	          1.00317232	          0.31594706	         -0.47484254	        -12.86229975	          6.39598545	        -92.50249412	        -21.71887537	        -14.73658493	        -10.47395497	         53.55930200	         -5.18906070	         -1.16940389	        -35.92673568	        -23.65893229	        -29.78258598	          7.38204835	        -22.32055395	        -10.13484665	         10.45040400	         50.60122633	        -18.79010758	         -7.83125431	        100.25100789	         60.31013491	          1.18423035	          6.00420748	        -50.47326471	        -15.60488710	        -11.78553833	         65.31533150	         59.78617204	        -23.11393418	          5.78366628	
